# xmcd CD database file
#
# Track frame offsets:
#	150
#	14052
#	30344
#	44330
#	58747
#	74516
#	87903
#	98882
#	114155
#	127541
#
# Disc length: 1899 seconds
#
# Revision: 0
# Processed by: cddbd v1.5.1PL2 Copyright (c) Steve Scherf et al.
# Submitted via: CDex 1.51
#
DISCID=7a07690a
DTITLE=Annelle Travis - Looking For Mr Right
DYEAR=1900
DGENRE=Country
TTITLE0=Email Everyday
TTITLE1=Not Even Cring
TTITLE2=' Til He Did
TTITLE3=The Night The Moon Turned Blue
TTITLE4=Friends And Lovers - With Brent Ford
TTITLE5=Angel In Your Arms
TTITLE6=You Can Have Him
TTITLE7=Looking For A Stranger
TTITLE8=If The Music's Any Faster
TTITLE9=Get Lazey With You
EXTD=
EXTT0=
EXTT1=
EXTT2=
EXTT3=
EXTT4=
EXTT5=
EXTT6=
EXTT7=
EXTT8=
EXTT9=
PLAYORDER=
